<svg id="visual" viewBox="0 0 1920 1080" width="1920" height="1080" xmlns="http://www.w3.org/2000/svg" xmlns:xlink="http://www.w3.org/1999/xlink" version="1.1"><path d="M0 560L45.7 563.2C91.3 566.3 182.7 572.7 274.2 629.2C365.7 685.7 457.3 792.3 548.8 791.2C640.3 790 731.7 681 823 660.5C914.3 640 1005.7 708 1097 743.3C1188.3 778.7 1279.7 781.3 1371.2 758C1462.7 734.7 1554.3 685.3 1645.8 697.8C1737.3 710.3 1828.7 784.7 1874.3 821.8L1920 859L1920 0L1874.3 0C1828.7 0 1737.3 0 1645.8 0C1554.3 0 1462.7 0 1371.2 0C1279.7 0 1188.3 0 1097 0C1005.7 0 914.3 0 823 0C731.7 0 640.3 0 548.8 0C457.3 0 365.7 0 274.2 0C182.7 0 91.3 0 45.7 0L0 0Z" fill="#fa9f99"></path><path d="M0 494L45.7 500.5C91.3 507 182.7 520 274.2 513.3C365.7 506.7 457.3 480.3 548.8 473.8C640.3 467.3 731.7 480.7 823 505C914.3 529.3 1005.7 564.7 1097 602.3C1188.3 640 1279.7 680 1371.2 667.7C1462.7 655.3 1554.3 590.7 1645.8 563.3C1737.3 536 1828.7 546 1874.3 551L1920 556L1920 0L1874.3 0C1828.7 0 1737.3 0 1645.8 0C1554.3 0 1462.7 0 1371.2 0C1279.7 0 1188.3 0 1097 0C1005.7 0 914.3 0 823 0C731.7 0 640.3 0 548.8 0C457.3 0 365.7 0 274.2 0C182.7 0 91.3 0 45.7 0L0 0Z" fill="#fcad9e"></path><path d="M0 547L45.7 538.7C91.3 530.3 182.7 513.7 274.2 516.7C365.7 519.7 457.3 542.3 548.8 517.3C640.3 492.3 731.7 419.7 823 422.3C914.3 425 1005.7 503 1097 504C1188.3 505 1279.7 429 1371.2 422.5C1462.7 416 1554.3 479 1645.8 517.5C1737.3 556 1828.7 570 1874.3 577L1920 584L1920 0L1874.3 0C1828.7 0 1737.3 0 1645.8 0C1554.3 0 1462.7 0 1371.2 0C1279.7 0 1188.3 0 1097 0C1005.7 0 914.3 0 823 0C731.7 0 640.3 0 548.8 0C457.3 0 365.7 0 274.2 0C182.7 0 91.3 0 45.7 0L0 0Z" fill="#fdbaa6"></path><path d="M0 318L45.7 328.8C91.3 339.7 182.7 361.3 274.2 375.8C365.7 390.3 457.3 397.7 548.8 373.5C640.3 349.3 731.7 293.7 823 266C914.3 238.3 1005.7 238.7 1097 237.3C1188.3 236 1279.7 233 1371.2 253C1462.7 273 1554.3 316 1645.8 315.8C1737.3 315.7 1828.7 272.3 1874.3 250.7L1920 229L1920 0L1874.3 0C1828.7 0 1737.3 0 1645.8 0C1554.3 0 1462.7 0 1371.2 0C1279.7 0 1188.3 0 1097 0C1005.7 0 914.3 0 823 0C731.7 0 640.3 0 548.8 0C457.3 0 365.7 0 274.2 0C182.7 0 91.3 0 45.7 0L0 0Z" fill="#fec7b0"></path><path d="M0 199L45.7 202C91.3 205 182.7 211 274.2 222.3C365.7 233.7 457.3 250.3 548.8 252.7C640.3 255 731.7 243 823 213.3C914.3 183.7 1005.7 136.3 1097 130.5C1188.3 124.7 1279.7 160.3 1371.2 186.2C1462.7 212 1554.3 228 1645.8 223.7C1737.3 219.3 1828.7 194.7 1874.3 182.3L1920 170L1920 0L1874.3 0C1828.7 0 1737.3 0 1645.8 0C1554.3 0 1462.7 0 1371.2 0C1279.7 0 1188.3 0 1097 0C1005.7 0 914.3 0 823 0C731.7 0 640.3 0 548.8 0C457.3 0 365.7 0 274.2 0C182.7 0 91.3 0 45.7 0L0 0Z" fill="#ffd4bc"></path></svg>