<svg id="visual" viewBox="0 0 1920 1080" width="1920" height="1080" xmlns="http://www.w3.org/2000/svg" xmlns:xlink="http://www.w3.org/1999/xlink" version="1.1"><path d="M0 286L45.7 296.2C91.3 306.3 182.7 326.7 274.2 326.3C365.7 326 457.3 305 548.8 298C640.3 291 731.7 298 823 312.2C914.3 326.3 1005.7 347.7 1097 344.5C1188.3 341.3 1279.7 313.7 1371.2 324.5C1462.7 335.3 1554.3 384.7 1645.8 384C1737.3 383.3 1828.7 332.7 1874.3 307.3L1920 282L1920 0L1874.3 0C1828.7 0 1737.3 0 1645.8 0C1554.3 0 1462.7 0 1371.2 0C1279.7 0 1188.3 0 1097 0C1005.7 0 914.3 0 823 0C731.7 0 640.3 0 548.8 0C457.3 0 365.7 0 274.2 0C182.7 0 91.3 0 45.7 0L0 0Z" fill="#ffe6c0"></path><path d="M0 216L45.7 240C91.3 264 182.7 312 274.2 311.7C365.7 311.3 457.3 262.7 548.8 255.7C640.3 248.7 731.7 283.3 823 284.7C914.3 286 1005.7 254 1097 252.2C1188.3 250.3 1279.7 278.7 1371.2 281.8C1462.7 285 1554.3 263 1645.8 270C1737.3 277 1828.7 313 1874.3 331L1920 349L1920 0L1874.3 0C1828.7 0 1737.3 0 1645.8 0C1554.3 0 1462.7 0 1371.2 0C1279.7 0 1188.3 0 1097 0C1005.7 0 914.3 0 823 0C731.7 0 640.3 0 548.8 0C457.3 0 365.7 0 274.2 0C182.7 0 91.3 0 45.7 0L0 0Z" fill="#ffd3ab"></path><path d="M0 231L45.7 230.5C91.3 230 182.7 229 274.2 225.3C365.7 221.7 457.3 215.3 548.8 222.2C640.3 229 731.7 249 823 242.8C914.3 236.7 1005.7 204.3 1097 186.7C1188.3 169 1279.7 166 1371.2 175.3C1462.7 184.7 1554.3 206.3 1645.8 213.3C1737.3 220.3 1828.7 212.7 1874.3 208.8L1920 205L1920 0L1874.3 0C1828.7 0 1737.3 0 1645.8 0C1554.3 0 1462.7 0 1371.2 0C1279.7 0 1188.3 0 1097 0C1005.7 0 914.3 0 823 0C731.7 0 640.3 0 548.8 0C457.3 0 365.7 0 274.2 0C182.7 0 91.3 0 45.7 0L0 0Z" fill="#ffbe9c"></path><path d="M0 184L45.7 170.2C91.3 156.3 182.7 128.7 274.2 132C365.7 135.3 457.3 169.7 548.8 187.8C640.3 206 731.7 208 823 207.2C914.3 206.3 1005.7 202.7 1097 200C1188.3 197.3 1279.7 195.7 1371.2 183.2C1462.7 170.7 1554.3 147.3 1645.8 140C1737.3 132.7 1828.7 141.3 1874.3 145.7L1920 150L1920 0L1874.3 0C1828.7 0 1737.3 0 1645.8 0C1554.3 0 1462.7 0 1371.2 0C1279.7 0 1188.3 0 1097 0C1005.7 0 914.3 0 823 0C731.7 0 640.3 0 548.8 0C457.3 0 365.7 0 274.2 0C182.7 0 91.3 0 45.7 0L0 0Z" fill="#ffa893"></path><path d="M0 116L45.7 111C91.3 106 182.7 96 274.2 90.3C365.7 84.7 457.3 83.3 548.8 78.3C640.3 73.3 731.7 64.7 823 62.3C914.3 60 1005.7 64 1097 62.7C1188.3 61.3 1279.7 54.7 1371.2 64.3C1462.7 74 1554.3 100 1645.8 106.7C1737.3 113.3 1828.7 100.7 1874.3 94.3L1920 88L1920 0L1874.3 0C1828.7 0 1737.3 0 1645.8 0C1554.3 0 1462.7 0 1371.2 0C1279.7 0 1188.3 0 1097 0C1005.7 0 914.3 0 823 0C731.7 0 640.3 0 548.8 0C457.3 0 365.7 0 274.2 0C182.7 0 91.3 0 45.7 0L0 0Z" fill="#ff9292"></path></svg>