<svg id="visual" viewBox="0 0 1920 1080" width="1920" height="1080" xmlns="http://www.w3.org/2000/svg" xmlns:xlink="http://www.w3.org/1999/xlink" version="1.1"><g stroke-width="1" stroke-linejoin="bevel"><path d="M1062.7 573L1073.7 682L1277 565Z" fill="#c5dfed" stroke="#c5dfed"></path><path d="M1073.7 682L1307 684L1277 565Z" fill="#deedf7" stroke="#deedf7"></path><path d="M1262 332L1029.7 374L1062.7 573Z" fill="#deedf7" stroke="#deedf7"></path><path d="M1062.7 573L885.3 759L1073.7 682Z" fill="#deedf7" stroke="#deedf7"></path><path d="M1073.7 682L1316 873L1307 684Z" fill="#cae1ef" stroke="#cae1ef"></path><path d="M1506.3 506L1262 332L1277 565Z" fill="#deedf7" stroke="#deedf7"></path><path d="M1277 565L1262 332L1062.7 573Z" fill="#e2f0f9" stroke="#e2f0f9"></path><path d="M885.3 759L1100.7 925L1073.7 682Z" fill="#cfe4f1" stroke="#cfe4f1"></path><path d="M1073.7 682L1100.7 925L1316 873Z" fill="#deedf7" stroke="#deedf7"></path><path d="M1316 873L1483.3 682L1307 684Z" fill="#cae1ef" stroke="#cae1ef"></path><path d="M1307 684L1483.3 682L1277 565Z" fill="#e2f0f9" stroke="#e2f0f9"></path><path d="M832.3 501L885.3 759L1062.7 573Z" fill="#e7f3fb" stroke="#e7f3fb"></path><path d="M1483.3 682L1506.3 506L1277 565Z" fill="#deedf7" stroke="#deedf7"></path><path d="M1029.7 374L832.3 501L1062.7 573Z" fill="#e2f0f9" stroke="#e2f0f9"></path><path d="M1506.3 506L1522.3 381L1262 332Z" fill="#deedf7" stroke="#deedf7"></path><path d="M1294 1080L1494.3 896L1316 873Z" fill="#ecf6fd" stroke="#ecf6fd"></path><path d="M1316 873L1494.3 896L1483.3 682Z" fill="#d9eaf5" stroke="#d9eaf5"></path><path d="M1483.3 682L1712.7 522L1506.3 506Z" fill="#c5dfed" stroke="#c5dfed"></path><path d="M1506.3 506L1712.7 522L1522.3 381Z" fill="#d4e7f3" stroke="#d4e7f3"></path><path d="M1262 332L1038.7 208L1029.7 374Z" fill="#cae1ef" stroke="#cae1ef"></path><path d="M1029.7 374L820.3 334L832.3 501Z" fill="#e7f3fb" stroke="#e7f3fb"></path><path d="M1267 158L1038.7 208L1262 332Z" fill="#deedf7" stroke="#deedf7"></path><path d="M1038.7 208L820.3 334L1029.7 374Z" fill="#d4e7f3" stroke="#d4e7f3"></path><path d="M885.3 759L825.3 931L1100.7 925Z" fill="#cae1ef" stroke="#cae1ef"></path><path d="M649 899L825.3 931L885.3 759Z" fill="#e2f0f9" stroke="#e2f0f9"></path><path d="M667 688L885.3 759L832.3 501Z" fill="#cae1ef" stroke="#cae1ef"></path><path d="M1459.3 151L1267 158L1262 332Z" fill="#cfe4f1" stroke="#cfe4f1"></path><path d="M825.3 931L1061.7 1080L1100.7 925Z" fill="#bad9e8" stroke="#bad9e8"></path><path d="M1100.7 925L1294 1080L1316 873Z" fill="#ecf6fd" stroke="#ecf6fd"></path><path d="M1061.7 1080L1294 1080L1100.7 925Z" fill="#ecf6fd" stroke="#ecf6fd"></path><path d="M671 517L667 688L832.3 501Z" fill="#e2f0f9" stroke="#e2f0f9"></path><path d="M820.3 334L671 517L832.3 501Z" fill="#d9eaf5" stroke="#d9eaf5"></path><path d="M1522.3 381L1459.3 151L1262 332Z" fill="#cfe4f1" stroke="#cfe4f1"></path><path d="M1717.7 746L1712.7 522L1483.3 682Z" fill="#d9eaf5" stroke="#d9eaf5"></path><path d="M1522.3 381L1688.7 357L1459.3 151Z" fill="#ecf6fd" stroke="#ecf6fd"></path><path d="M1038.7 208L887.3 143L820.3 334Z" fill="#bad9e8" stroke="#bad9e8"></path><path d="M820.3 334L628 370L671 517Z" fill="#d9eaf5" stroke="#d9eaf5"></path><path d="M1065.7 0L887.3 143L1038.7 208Z" fill="#ecf6fd" stroke="#ecf6fd"></path><path d="M1065.7 0L1038.7 208L1267 158Z" fill="#ecf6fd" stroke="#ecf6fd"></path><path d="M1494.3 896L1717.7 746L1483.3 682Z" fill="#cae1ef" stroke="#cae1ef"></path><path d="M1728.7 916L1717.7 746L1494.3 896Z" fill="#cae1ef" stroke="#cae1ef"></path><path d="M825.3 931L842.3 1080L1061.7 1080Z" fill="#cfe4f1" stroke="#cfe4f1"></path><path d="M638 1080L842.3 1080L825.3 931Z" fill="#e7f3fb" stroke="#e7f3fb"></path><path d="M1294 1080L1513.3 1080L1494.3 896Z" fill="#cae1ef" stroke="#cae1ef"></path><path d="M1712.7 522L1688.7 357L1522.3 381Z" fill="#bad9e8" stroke="#bad9e8"></path><path d="M453.7 753L649 899L667 688Z" fill="#ecf6fd" stroke="#ecf6fd"></path><path d="M667 688L649 899L885.3 759Z" fill="#bfdcea" stroke="#bfdcea"></path><path d="M638 203L628 370L820.3 334Z" fill="#e2f0f9" stroke="#e2f0f9"></path><path d="M671 517L459.7 505L667 688Z" fill="#cfe4f1" stroke="#cfe4f1"></path><path d="M1309 0L1065.7 0L1267 158Z" fill="#d4e7f3" stroke="#d4e7f3"></path><path d="M1461.3 0L1309 0L1459.3 151Z" fill="#ecf6fd" stroke="#ecf6fd"></path><path d="M1459.3 151L1309 0L1267 158Z" fill="#bfdcea" stroke="#bfdcea"></path><path d="M1513.3 1080L1728.7 916L1494.3 896Z" fill="#bad9e8" stroke="#bad9e8"></path><path d="M1920 343L1688.7 357L1712.7 522Z" fill="#e7f3fb" stroke="#e7f3fb"></path><path d="M887.3 143L638 203L820.3 334Z" fill="#c5dfed" stroke="#c5dfed"></path><path d="M858.3 0L638 203L887.3 143Z" fill="#c5dfed" stroke="#c5dfed"></path><path d="M1671.7 0L1461.3 0L1459.3 151Z" fill="#cae1ef" stroke="#cae1ef"></path><path d="M1065.7 0L858.3 0L887.3 143Z" fill="#c5dfed" stroke="#c5dfed"></path><path d="M649 899L638 1080L825.3 931Z" fill="#e7f3fb" stroke="#e7f3fb"></path><path d="M405.7 1080L638 1080L649 899Z" fill="#d4e7f3" stroke="#d4e7f3"></path><path d="M1513.3 1080L1708.7 1080L1728.7 916Z" fill="#bfdcea" stroke="#bfdcea"></path><path d="M457.7 341L459.7 505L628 370Z" fill="#cfe4f1" stroke="#cfe4f1"></path><path d="M628 370L459.7 505L671 517Z" fill="#c5dfed" stroke="#c5dfed"></path><path d="M1920 343L1731.7 149L1688.7 357Z" fill="#bfdcea" stroke="#bfdcea"></path><path d="M1688.7 357L1731.7 149L1459.3 151Z" fill="#ecf6fd" stroke="#ecf6fd"></path><path d="M1920 575L1712.7 522L1717.7 746Z" fill="#d4e7f3" stroke="#d4e7f3"></path><path d="M459.7 505L453.7 753L667 688Z" fill="#bfdcea" stroke="#bfdcea"></path><path d="M1920 720L1717.7 746L1920 910Z" fill="#e7f3fb" stroke="#e7f3fb"></path><path d="M1920 720L1920 575L1717.7 746Z" fill="#cae1ef" stroke="#cae1ef"></path><path d="M1920 910L1717.7 746L1728.7 916Z" fill="#ecf6fd" stroke="#ecf6fd"></path><path d="M638 203L457.7 341L628 370Z" fill="#cae1ef" stroke="#cae1ef"></path><path d="M186.3 732L391.7 871L453.7 753Z" fill="#bad9e8" stroke="#bad9e8"></path><path d="M389.7 171L457.7 341L638 203Z" fill="#cae1ef" stroke="#cae1ef"></path><path d="M1920 0L1671.7 0L1731.7 149Z" fill="#cfe4f1" stroke="#cfe4f1"></path><path d="M1731.7 149L1671.7 0L1459.3 151Z" fill="#d9eaf5" stroke="#d9eaf5"></path><path d="M1920 575L1920 343L1712.7 522Z" fill="#d4e7f3" stroke="#d4e7f3"></path><path d="M1920 1080L1920 910L1728.7 916Z" fill="#bfdcea" stroke="#bfdcea"></path><path d="M210.3 519L453.7 753L459.7 505Z" fill="#cfe4f1" stroke="#cfe4f1"></path><path d="M453.7 753L391.7 871L649 899Z" fill="#cae1ef" stroke="#cae1ef"></path><path d="M858.3 0L619 0L638 203Z" fill="#cfe4f1" stroke="#cfe4f1"></path><path d="M1920 343L1920 197L1731.7 149Z" fill="#e2f0f9" stroke="#e2f0f9"></path><path d="M1708.7 1080L1920 1080L1728.7 916Z" fill="#deedf7" stroke="#deedf7"></path><path d="M391.7 871L405.7 1080L649 899Z" fill="#deedf7" stroke="#deedf7"></path><path d="M459.7 0L389.7 171L638 203Z" fill="#deedf7" stroke="#deedf7"></path><path d="M233.3 333L210.3 519L459.7 505Z" fill="#cae1ef" stroke="#cae1ef"></path><path d="M619 0L459.7 0L638 203Z" fill="#cae1ef" stroke="#cae1ef"></path><path d="M233.3 333L457.7 341L389.7 171Z" fill="#ecf6fd" stroke="#ecf6fd"></path><path d="M233.3 333L459.7 505L457.7 341Z" fill="#cfe4f1" stroke="#cfe4f1"></path><path d="M391.7 871L236.3 1080L405.7 1080Z" fill="#e2f0f9" stroke="#e2f0f9"></path><path d="M1920 197L1920 0L1731.7 149Z" fill="#ecf6fd" stroke="#ecf6fd"></path><path d="M205.3 197L233.3 333L389.7 171Z" fill="#ecf6fd" stroke="#ecf6fd"></path><path d="M210.3 519L186.3 732L453.7 753Z" fill="#d9eaf5" stroke="#d9eaf5"></path><path d="M186.3 732L199.3 892L391.7 871Z" fill="#cae1ef" stroke="#cae1ef"></path><path d="M199.3 892L236.3 1080L391.7 871Z" fill="#bad9e8" stroke="#bad9e8"></path><path d="M0 364L0 568L210.3 519Z" fill="#cfe4f1" stroke="#cfe4f1"></path><path d="M210.3 519L0 568L186.3 732Z" fill="#cfe4f1" stroke="#cfe4f1"></path><path d="M182.3 0L205.3 197L389.7 171Z" fill="#cae1ef" stroke="#cae1ef"></path><path d="M459.7 0L182.3 0L389.7 171Z" fill="#d4e7f3" stroke="#d4e7f3"></path><path d="M0 364L210.3 519L233.3 333Z" fill="#cae1ef" stroke="#cae1ef"></path><path d="M0 364L233.3 333L205.3 197Z" fill="#e2f0f9" stroke="#e2f0f9"></path><path d="M186.3 732L0 914L199.3 892Z" fill="#cfe4f1" stroke="#cfe4f1"></path><path d="M199.3 892L0 1080L236.3 1080Z" fill="#bfdcea" stroke="#bfdcea"></path><path d="M0 568L0 706L186.3 732Z" fill="#ecf6fd" stroke="#ecf6fd"></path><path d="M0 180L0 364L205.3 197Z" fill="#d4e7f3" stroke="#d4e7f3"></path><path d="M0 706L0 914L186.3 732Z" fill="#d9eaf5" stroke="#d9eaf5"></path><path d="M182.3 0L0 180L205.3 197Z" fill="#cfe4f1" stroke="#cfe4f1"></path><path d="M0 914L0 1080L199.3 892Z" fill="#bad9e8" stroke="#bad9e8"></path><path d="M182.3 0L0 0L0 180Z" fill="#cae1ef" stroke="#cae1ef"></path></g></svg>