<svg id="visual" viewBox="0 0 1920 1080" width="1920" height="1080" xmlns="http://www.w3.org/2000/svg" xmlns:xlink="http://www.w3.org/1999/xlink" version="1.1"><path d="M0 379L29.2 364.7C58.3 350.3 116.7 321.7 174.8 319.8C233 318 291 343 349.2 350.2C407.3 357.3 465.7 346.7 523.8 343.2C582 339.7 640 343.3 698.2 364.8C756.3 386.3 814.7 425.7 872.8 409.3C931 393 989 321 1047.2 277.8C1105.3 234.7 1163.7 220.3 1221.8 224C1280 227.7 1338 249.3 1396.2 262C1454.3 274.7 1512.7 278.3 1570.8 323.3C1629 368.3 1687 454.7 1745.2 434.8C1803.3 415 1861.7 289 1890.8 226L1920 163L1920 0L1890.8 0C1861.7 0 1803.3 0 1745.2 0C1687 0 1629 0 1570.8 0C1512.7 0 1454.3 0 1396.2 0C1338 0 1280 0 1221.8 0C1163.7 0 1105.3 0 1047.2 0C989 0 931 0 872.8 0C814.7 0 756.3 0 698.2 0C640 0 582 0 523.8 0C465.7 0 407.3 0 349.2 0C291 0 233 0 174.8 0C116.7 0 58.3 0 29.2 0L0 0Z" fill="#9fc2f7"></path><path d="M0 649L29.2 656.2C58.3 663.3 116.7 677.7 174.8 684.8C233 692 291 692 349.2 674C407.3 656 465.7 620 523.8 605.7C582 591.3 640 598.7 698.2 605.8C756.3 613 814.7 620 872.8 630.8C931 641.7 989 656.3 1047.2 660C1105.3 663.7 1163.7 656.3 1221.8 659.8C1280 663.3 1338 677.7 1396.2 656C1454.3 634.3 1512.7 576.7 1570.8 580.3C1629 584 1687 649 1745.2 663.5C1803.3 678 1861.7 642 1890.8 624L1920 606L1920 161L1890.8 224C1861.7 287 1803.3 413 1745.2 432.8C1687 452.7 1629 366.3 1570.8 321.3C1512.7 276.3 1454.3 272.7 1396.2 260C1338 247.3 1280 225.7 1221.8 222C1163.7 218.3 1105.3 232.7 1047.2 275.8C989 319 931 391 872.8 407.3C814.7 423.7 756.3 384.3 698.2 362.8C640 341.3 582 337.7 523.8 341.2C465.7 344.7 407.3 355.3 349.2 348.2C291 341 233 316 174.8 317.8C116.7 319.7 58.3 348.3 29.2 362.7L0 377Z" fill="#77d2f0"></path><path d="M0 757L29.2 762.3C58.3 767.7 116.7 778.3 174.8 796.3C233 814.3 291 839.7 349.2 827.2C407.3 814.7 465.7 764.3 523.8 741C582 717.7 640 721.3 698.2 717.7C756.3 714 814.7 703 872.8 722.7C931 742.3 989 792.7 1047.2 805.3C1105.3 818 1163.7 793 1221.8 794.8C1280 796.7 1338 825.3 1396.2 810.8C1454.3 796.3 1512.7 738.7 1570.8 731.5C1629 724.3 1687 767.7 1745.2 778.5C1803.3 789.3 1861.7 767.7 1890.8 756.8L1920 746L1920 604L1890.8 622C1861.7 640 1803.3 676 1745.2 661.5C1687 647 1629 582 1570.8 578.3C1512.7 574.7 1454.3 632.3 1396.2 654C1338 675.7 1280 661.3 1221.8 657.8C1163.7 654.3 1105.3 661.7 1047.2 658C989 654.3 931 639.7 872.8 628.8C814.7 618 756.3 611 698.2 603.8C640 596.7 582 589.3 523.8 603.7C465.7 618 407.3 654 349.2 672C291 690 233 690 174.8 682.8C116.7 675.7 58.3 661.3 29.2 654.2L0 647Z" fill="#7bdbd4"></path><path d="M0 951L29.2 949.3C58.3 947.7 116.7 944.3 174.8 949.8C233 955.3 291 969.7 349.2 966C407.3 962.3 465.7 940.7 523.8 928C582 915.3 640 911.7 698.2 924.3C756.3 937 814.7 966 872.8 971.5C931 977 989 959 1047.2 942.7C1105.3 926.3 1163.7 911.7 1221.8 920.7C1280 929.7 1338 962.3 1396.2 957C1454.3 951.7 1512.7 908.3 1570.8 897.5C1629 886.7 1687 908.3 1745.2 921C1803.3 933.7 1861.7 937.3 1890.8 939.2L1920 941L1920 744L1890.8 754.8C1861.7 765.7 1803.3 787.3 1745.2 776.5C1687 765.7 1629 722.3 1570.8 729.5C1512.7 736.7 1454.3 794.3 1396.2 808.8C1338 823.3 1280 794.7 1221.8 792.8C1163.7 791 1105.3 816 1047.2 803.3C989 790.7 931 740.3 872.8 720.7C814.7 701 756.3 712 698.2 715.7C640 719.3 582 715.7 523.8 739C465.7 762.3 407.3 812.7 349.2 825.2C291 837.7 233 812.3 174.8 794.3C116.7 776.3 58.3 765.7 29.2 760.3L0 755Z" fill="#a6deb2"></path><path d="M0 1081L29.2 1081C58.3 1081 116.7 1081 174.8 1081C233 1081 291 1081 349.2 1081C407.3 1081 465.7 1081 523.8 1081C582 1081 640 1081 698.2 1081C756.3 1081 814.7 1081 872.8 1081C931 1081 989 1081 1047.2 1081C1105.3 1081 1163.7 1081 1221.8 1081C1280 1081 1338 1081 1396.2 1081C1454.3 1081 1512.7 1081 1570.8 1081C1629 1081 1687 1081 1745.2 1081C1803.3 1081 1861.7 1081 1890.8 1081L1920 1081L1920 939L1890.8 937.2C1861.7 935.3 1803.3 931.7 1745.2 919C1687 906.3 1629 884.7 1570.8 895.5C1512.7 906.3 1454.3 949.7 1396.2 955C1338 960.3 1280 927.7 1221.8 918.7C1163.7 909.7 1105.3 924.3 1047.2 940.7C989 957 931 975 872.8 969.5C814.7 964 756.3 935 698.2 922.3C640 909.7 582 913.3 523.8 926C465.7 938.7 407.3 960.3 349.2 964C291 967.7 233 953.3 174.8 947.8C116.7 942.3 58.3 945.7 29.2 947.3L0 949Z" fill="#dada9d"></path></svg>